<?xml version="1.0" standalone="no"?>
<!DOCTYPE svg PUBLIC "-//W3C//DTD SVG 20010904//EN" "http://www.w3.org/TR/2001/REC-SVG-20010904/DTD/svg10.dtd">
<svg version="1.0" xmlns="http://www.w3.org/2000/svg" width="460.000000pt" height="460.000000pt" viewBox="0 0 460.000000 460.000000" preserveAspectRatio="xMidYMid meet">
<g transform="translate(0.000000,460.000000) scale(0.100000,-0.100000)" fill="#eb5933" stroke="none">
  <path d="M805 4088 c-3 -7 -4 -602 -3 -1323 l3 -1310 245 247 245 248 223 -223 222 -222 0 98 0 97 183 0 182 0 100 -192 100 -192 65 -22 c36 -12 119 -38 185 -58 256 -79 314 -96 440 -136 72 -22 135 -40 141 -40 5 0 36 85 68 188 l58 188 -98 175 c-53 96 -110 198 -127 227 -16 30 -25 57 -21 62 5 4 45 31 89 60 44 29 117 90 161 134 216 215 313 475 314 836 0 386 -104 648 -341 853 -110 95 -200 147 -353 202 -161 58 -459 111 -584 103 l-53 -3 201 -202 c110 -110 200 -204 200 -207 0 -4 -77 -83 -171 -177 -93 -94 -169 -172 -167 -173 2 -1 42 -14 89 -29 111 -35 165 -76 210 -158 l34 -64 0 -145 c0 -144 0 -145 -34 -218 -55 -117 -160 -196 -306 -232 -29 -7 -158 -14 -307 -17 l-258 -5 0 441 0 441 138 0 137 0 168 168 168 169 -211 211 -212 212 -559 0 c-439 0 -561 -3 -564 -12z"/>
  <path d="M1047 1392 l-247 -247 0 -318 0 -317 470 0 470 0 0 345 0 346 -218 219 c-120 121 -220 220 -223 220 -2 0 -115 -111 -252 -248z"/>
  <path d="M3346 980 c-59 -188 -60 -190 -85 -183 -14 3 -102 29 -196 58 -499 155 -606 187 -611 183 -4 -5 83 -180 216 -433 l48 -90 531 -3 532 -2 -24 42 c-25 43 -150 267 -192 343 -72 131 -145 259 -152 266 -5 5 -35 -77 -67 -181z"/>
</g>
</svg>
